<svg width="18" height="18" viewBox="0 0 18 18" fill="none" xmlns="http://www.w3.org/2000/svg">
<path d="M5.825 9L7.3 7.525C7.5 7.325 7.6 7.09167 7.6 6.825C7.6 6.55834 7.5 6.325 7.3 6.125C7.1 5.925 6.86234 5.825 6.587 5.825C6.31167 5.825 6.07434 5.925 5.875 6.125L3.7 8.3C3.6 8.4 3.529 8.50834 3.487 8.625C3.445 8.74167 3.42434 8.86667 3.425 9C3.425 9.13334 3.44567 9.25834 3.487 9.375C3.52833 9.49167 3.59933 9.6 3.7 9.7L5.875 11.875C6.075 12.075 6.31267 12.175 6.588 12.175C6.86334 12.175 7.10067 12.075 7.3 11.875C7.5 11.675 7.6 11.4417 7.6 11.175C7.6 10.9083 7.5 10.675 7.3 10.475L5.825 9ZM12.175 9L10.7 10.475C10.5 10.675 10.4 10.9083 10.4 11.175C10.4 11.4417 10.5 11.675 10.7 11.875C10.9 12.075 11.1377 12.175 11.413 12.175C11.6883 12.175 11.9257 12.075 12.125 11.875L14.3 9.7C14.4 9.6 14.471 9.49167 14.513 9.375C14.555 9.25834 14.5757 9.13334 14.575 9C14.575 8.86667 14.554 8.74167 14.512 8.625C14.47 8.50834 14.3993 8.4 14.3 8.3L12.125 6.125C12.025 6.025 11.9123 5.95 11.787 5.9C11.6617 5.85 11.5367 5.825 11.412 5.825C11.2873 5.825 11.1623 5.85 11.037 5.9C10.9117 5.95 10.7993 6.025 10.7 6.125C10.5 6.325 10.4 6.55834 10.4 6.825C10.4 7.09167 10.5 7.325 10.7 7.525L12.175 9ZM2 18C1.45 18 0.979002 17.804 0.587002 17.412C0.195002 17.02 -0.000664969 16.5493 1.69779e-06 16V2C1.69779e-06 1.45 0.196002 0.979002 0.588002 0.587002C0.980002 0.195002 1.45067 -0.000664969 2 1.69779e-06H16C16.55 1.69779e-06 17.021 0.196002 17.413 0.588002C17.805 0.980002 18.0007 1.45067 18 2V16C18 16.55 17.804 17.021 17.412 17.413C17.02 17.805 16.5493 18.0007 16 18H2Z" fill="#753A65"/>
</svg>
